# xmcd
#
# Track frame offsets: 
#        150
#        12853
#        24886
#        37151
#        50531
#        60905
#        73860
#        86997
#        99610
#        108431
#        118755
#        129967
#        141544
#        152658
#        166044
#        179957
#        189952
#        202134
#        215044
#        226539
#
# Disc length: 3177 seconds
#
# Revision: 0
# Processed by: cddbd v1.5.2PL0 Copyright (c) Steve Scherf et al.
# Submitted via: ExactAudioCopy v0.90b4
#
DISCID=1e0c6714
DTITLE=Various Artist - Ike Turner: Rock-A-Bucket [CD2]
DYEAR=2011
DGENRE=R&B
TTITLE0=Jackie Brenston - Rocket 88
TTITLE1=Prisonaires - A Prisoner's Prayer
TTITLE2=Howlin' Wolf - How Many More Years
TTITLE3=B.B. King - Three O'Clock Blues
TTITLE4=Houston Baines - Going Home
TTITLE5=Charley Booker - No Ridin' Blues
TTITLE6=Drifting Slim - My Sweet Woman
TTITLE7=Boyd Gilmore - Ramblin' On My Mind
TTITLE8=Little Junior Parker - You're My Angel
TTITLE9=Sunny Blair - Step Back Baby
TTITLE10=Charley Booker - Charlie's Boogie Woogie
TTITLE11=B.B. King - Shake It Up And Go
TTITLE12=Little Milton - Beggin' My Baby
TTITLE13=Little Milton - Somebody Told Me
TTITLE14=Mary Sue - Love Is A Gamble
TTITLE15=Billy 'The Kid' Emerson - If Lovin' Is Believing
TTITLE16=Eugene Fox - Stay At Home
TTITLE17=Elmore James and His Broom Dusters - Sho Nuff I Do
TTITLE18=Willie King with Ike Turner featuring Billy Gayles - Peg Leg 
TTITLE18=Woman
TTITLE19=Roscoe Gordon - No More Doggin'
EXTD=
EXTT0=
EXTT1=
EXTT2=
EXTT3=
EXTT4=
EXTT5=
EXTT6=
EXTT7=
EXTT8=
EXTT9=
EXTT10=
EXTT11=
EXTT12=
EXTT13=
EXTT14=
EXTT15=
EXTT16=
EXTT17=
EXTT18=
EXTT19=
PLAYORDER=
